<svg width="38" height="40" viewBox="0 0 38 40" fill="none" xmlns="http://www.w3.org/2000/svg">
<rect x="5" y="10.7566" width="32" height="28" rx="5.6" fill="#6B36C9" fill-opacity="0.3" stroke="#292D32" stroke-width="2"/>
<path d="M12.6266 21.4223L9.90804 29.3513C9.46297 30.6495 10.4276 32 11.7999 32H29.1361C30.7585 32 31.7058 30.1699 30.7691 28.8452L27.2112 23.8139C26.4816 22.7822 24.99 22.6772 24.1231 23.5967L22.5711 25.2427C21.7399 26.1243 20.322 26.0702 19.5604 25.1278L16.074 20.8138C15.0854 19.5905 13.1367 19.9345 12.6266 21.4223Z" fill="#6B36C9" stroke="#292D32" stroke-width="2" stroke-linecap="round"/>
<circle cx="29" cy="18" r="2" fill="#292D32"/>
<path d="M4.17148 26.0536L1.39046 12.2536C0.78202 9.23441 2.72415 6.29091 5.73971 5.66467C8.57182 5.07653 11.9951 4.36563 14.6928 3.80539C17.6016 3.20132 21.3681 2.49041 24.327 1.94473C27.0868 1.43578 29.7936 3.06434 30.5371 5.77039C30.8811 7.02203 31.2173 8.33673 31.4502 9.45781" stroke="#292D32" stroke-width="2" stroke-linecap="round"/>
</svg>
